<svg width="374" height="369" viewBox="0 0 374 369" fill="none" xmlns="http://www.w3.org/2000/svg">
<path d="M2.48984 181.706C2.48984 81.3524 83.8422 0 184.196 0H191.464C291.816 0 373.17 81.3524 373.17 181.706V187.157C373.17 287.509 291.816 368.863 191.464 368.863H2.48984V181.706Z" fill="url(#paint0_linear_102_3)"/>
<path d="M299.186 197.677C281.969 238.651 234.793 257.913 193.816 240.696C152.838 223.482 133.577 176.305 150.794 135.327C168.011 94.3487 215.187 75.0865 256.164 92.3043C297.141 109.522 316.403 156.699 299.186 197.677Z" fill="#F5F5F5"/>
<path d="M130.194 315.846C127.794 333.632 111.43 346.105 93.6437 343.704C75.8575 341.307 63.3851 324.94 65.7857 307.154C68.1859 289.368 84.5501 276.895 102.336 279.296C120.122 281.696 132.595 298.06 130.194 315.846Z" fill="#F5F5F5"/>
<path d="M127.593 137.328C119.679 156.162 97.9948 165.017 79.1614 157.102C60.327 149.188 51.4738 127.506 59.3874 108.67C67.3008 89.8359 88.9839 80.9838 107.819 88.8982C126.653 96.81 135.505 118.494 127.593 137.328Z" fill="#F5F5F5"/>
<path d="M227.49 162L102.49 315" stroke="#F5F5F5" stroke-width="7"/>
<path d="M216.07 185.717L107.49 118.67" stroke="#F5F5F5" stroke-width="7"/>
<path d="M95.0576 122.882L99.3557 320.405" stroke="#F5F5F5" stroke-width="7"/>
<defs>
<linearGradient id="paint0_linear_102_3" x1="2.48984" y1="0" x2="420.996" y2="66.1133" gradientUnits="userSpaceOnUse">
<stop stop-color="#9583E2"/>
<stop offset="0.515625" stop-color="#5A7CCB"/>
<stop offset="1" stop-color="#BE82D8"/>
</linearGradient>
</defs>
</svg>
